<svg xmlns="http://www.w3.org/2000/svg" width="3.479in" height="2.557in" viewBox="0 0 250.458 184.083">
  <g>
    <g>
      <path d="M106.525,182.989l-1.431-5.17h1.663l.552,2.689c.095.456.181.9.258,1.352h.336c.086-.448.173-.9.267-1.352l.569-2.689h1.594l-1.422,5.17Z" fill="#fff"/>
      <path d="M110.806,181.05a2.027,2.027,0,0,1,2.154-2.309,1.653,1.653,0,0,1,1.887,1.827,4.788,4.788,0,0,1-.043.586h-2.559c.034.663.241.9.689.9s.578-.2.655-.422l1.189.293c-.172.646-.543,1.2-1.844,1.2A1.9,1.9,0,0,1,110.806,181.05Zm1.439-.387h1.267c.034-.681-.181-.974-.595-.974C112.486,179.689,112.279,179.939,112.245,180.663Z" fill="#fff"/>
      <path d="M116.01,178.293v-1.077h1.464v1.077Zm0,4.7v-4.118h1.464v4.118Z" fill="#fff"/>
      <path d="M120.283,182.989h-1.465v-5.773h1.465Z" fill="#fff"/>
      <path d="M123.091,182.989h-1.464v-5.773h1.464Z" fill="#fff"/>
      <path d="M124.211,181.05a2.027,2.027,0,0,1,2.154-2.309,1.653,1.653,0,0,1,1.887,1.827,4.788,4.788,0,0,1-.043.586H125.65c.034.663.241.9.689.9s.578-.2.655-.422l1.189.293c-.172.646-.543,1.2-1.844,1.2A1.9,1.9,0,0,1,124.211,181.05Zm1.439-.387h1.267c.034-.681-.181-.974-.595-.974C125.891,179.689,125.684,179.939,125.65,180.663Z" fill="#fff"/>
      <path d="M129.415,182.989v-4.118h1.292v1.292l.215.017c.362-1.206.664-1.4,1.086-1.4h.043v1.689h-.043c-.974,0-1.129.224-1.129.939v1.577Z" fill="#fff"/>
      <path d="M133.9,181.567l-.931,2.516H131.9V184l.525-2.43Z" fill="#fff"/>
      <path d="M139.227,182.007h-.189a1.461,1.461,0,0,1-1.327,1.068,1.031,1.031,0,0,1-1.12-1.137c0-.724.422-1.224,1.559-1.224h.922v-.387c0-.293-.12-.5-.439-.5-.285,0-.414.164-.466.431l-1.361-.414c.155-.637.81-1.1,1.887-1.1,1.319,0,1.827.56,1.827,1.6v2.645h-1.293Zm-.155-.638v-.189h-.543c-.335,0-.6.163-.6.456,0,.242.121.414.474.414A.635.635,0,0,0,139.072,181.369Z" fill="#fff"/>
      <path d="M143.328,182.989h-1.465v-5.773h1.465Z" fill="#fff"/>
      <path d="M144.448,181.05a2.027,2.027,0,0,1,2.154-2.309,1.653,1.653,0,0,1,1.887,1.827,4.607,4.607,0,0,1-.044.586h-2.558c.034.663.241.9.689.9a.581.581,0,0,0,.655-.422l1.189.293c-.172.646-.543,1.2-1.844,1.2A1.9,1.9,0,0,1,144.448,181.05Zm1.439-.387h1.266c.035-.681-.181-.974-.594-.974C146.128,179.689,145.921,179.939,145.887,180.663Z" fill="#fff"/>
      <path d="M149.651,182.989v-4.118h1.293v1.292l.215.017c.362-1.206.664-1.4,1.086-1.4h.043v1.689h-.043c-.974,0-1.129.224-1.129.939v1.577Z" fill="#fff"/>
      <path d="M153.476,179.939h-.465v-1.068h.465v-1.052h1.465v1.052h.939v1.068h-.939v1.5c0,.241.086.353.37.353a1.657,1.657,0,0,0,.483-.094l.155,1.258a2.863,2.863,0,0,1-1.034.163,1.331,1.331,0,0,1-1.439-1.464Z" fill="#fff"/>
      <path d="M156.862,181.05a2.027,2.027,0,0,1,2.154-2.309,1.653,1.653,0,0,1,1.887,1.827,4.788,4.788,0,0,1-.043.586H158.3c.034.663.241.9.689.9a.581.581,0,0,0,.655-.422l1.189.293c-.173.646-.543,1.2-1.844,1.2A1.9,1.9,0,0,1,156.862,181.05Zm1.439-.387h1.266c.035-.681-.181-.974-.594-.974C158.542,179.689,158.335,179.939,158.3,180.663Z" fill="#fff"/>
      <path d="M162.065,182.989v-4.118h1.293v1.292l.215.017c.362-1.206.663-1.4,1.086-1.4h.043v1.689h-.043c-.974,0-1.129.224-1.129.939v1.577Z" fill="#fff"/>
      <path d="M167.57,181.05a2.027,2.027,0,0,1,2.154-2.309,1.653,1.653,0,0,1,1.887,1.827,4.788,4.788,0,0,1-.043.586h-2.559c.034.663.241.9.689.9s.578-.2.655-.422l1.189.293c-.172.646-.543,1.2-1.844,1.2A1.9,1.9,0,0,1,167.57,181.05Zm1.439-.387h1.267c.034-.681-.181-.974-.595-.974C169.25,179.689,169.043,179.939,169.009,180.663Z" fill="#fff"/>
      <path d="M172.9,179.939h-.465v-1.068h.465v-1.052h1.465v1.052h.939v1.068h-.939v1.5c0,.241.086.353.37.353a1.657,1.657,0,0,0,.483-.094l.155,1.258a2.863,2.863,0,0,1-1.034.163,1.331,1.331,0,0,1-1.439-1.464Z" fill="#fff"/>
      <path d="M180.433,179.965c-.4,0-.612.267-.612.948,0,.585.12,1.008.629,1.008a.6.6,0,0,0,.586-.526l1.266.371c-.12.844-.7,1.352-1.861,1.352a1.882,1.882,0,0,1-2.119-2.068,2.025,2.025,0,0,1,2.145-2.309,1.591,1.591,0,0,1,1.827,1.465l-1.284.284C180.915,180.2,180.82,179.965,180.433,179.965Z" fill="#fff"/>
      <path d="M183.258,180.93a2.163,2.163,0,1,1,2.171,2.188A2,2,0,0,1,183.258,180.93Zm1.456,0c0,.741.121,1.068.707,1.068s.707-.327.707-1.068-.121-1.077-.707-1.077S184.714,180.189,184.714,180.93Z" fill="#fff"/>
      <path d="M190.168,182.989H188.7v-4.118h1.379v1.059h.206c.267-.715.75-1.189,1.327-1.189.629,0,1.017.517,1.017,1.413v2.835h-1.465v-2.421c0-.319-.155-.508-.405-.508-.37,0-.594.362-.594.818Z" fill="#fff"/>
      <path d="M193.673,181.938l1.241-.267a.662.662,0,0,0,.75.508c.293,0,.448-.077.448-.275,0-.173-.086-.311-.81-.474-1.137-.268-1.5-.6-1.5-1.4,0-.845.594-1.293,1.844-1.293,1.284,0,1.568.448,1.689,1.138l-1.181.215c-.06-.319-.172-.431-.577-.431-.319,0-.465.095-.465.267s.068.3.672.448c1.481.345,1.7.784,1.7,1.439,0,.853-.551,1.3-1.844,1.3C194.148,183.118,193.76,182.644,193.673,181.938Z" fill="#fff"/>
      <path d="M198.713,179.939h-.465v-1.068h.465v-1.052h1.465v1.052h.939v1.068h-.939v1.5c0,.241.086.353.371.353a1.657,1.657,0,0,0,.482-.094l.155,1.258a2.863,2.863,0,0,1-1.034.163,1.331,1.331,0,0,1-1.439-1.464Z" fill="#fff"/>
      <path d="M202.323,182.989v-4.118h1.293v1.292l.215.017c.362-1.206.663-1.4,1.086-1.4h.043v1.689h-.043c-.974,0-1.129.224-1.129.939v1.577Z" fill="#fff"/>
      <path d="M208.569,181.929h-.206c-.267.715-.75,1.189-1.327,1.189-.629,0-1.017-.517-1.017-1.413v-2.834h1.465v2.421c0,.319.155.508.405.508.37,0,.594-.362.594-.819v-2.11h1.465v4.118h-1.379Z" fill="#fff"/>
      <path d="M211.291,178.293v-1.077h1.465v1.077Zm0,4.7v-4.118h1.465v4.118Z" fill="#fff"/>
      <path d="M214.1,182.989v-4.118h1.292v1.292l.216.017c.362-1.206.663-1.4,1.085-1.4h.043v1.689h-.043c-.974,0-1.128.224-1.128.939v1.577Z" fill="#fff"/>
      <path d="M217.572,181.05a2.027,2.027,0,0,1,2.154-2.309,1.653,1.653,0,0,1,1.886,1.827,4.788,4.788,0,0,1-.043.586H219.01c.035.663.242.9.69.9a.581.581,0,0,0,.655-.422l1.189.293c-.173.646-.543,1.2-1.844,1.2A1.9,1.9,0,0,1,217.572,181.05Zm1.438-.387h1.267c.035-.681-.181-.974-.594-.974C219.252,179.689,219.045,179.939,219.01,180.663Z" fill="#fff"/>
    </g>
    <path d="M219.094,168.768H1.279a1.279,1.279,0,1,1,0-2.557H219.094a1.279,1.279,0,1,1,0,2.557Z" fill="#fff"/>
    <polygon points="30.35 75.657 20.119 75.657 20.119 11.233 28.239 11.233 46.989 44.772 46.989 11.233 57.22 11.233 57.22 66.902 47.64 66.902 30.35 35.976 30.35 75.657" fill="#fff"/>
    <path d="M82.072,66.9a20.775,20.775,0,1,1,20.775-20.774A20.8,20.8,0,0,1,82.072,66.9Zm0-31.318A10.544,10.544,0,1,0,92.616,46.128,10.556,10.556,0,0,0,82.072,35.584Z" fill="#fff"/>
    <polygon points="11.51 144.438 11.51 129.415 27.778 129.415 27.778 119.184 11.51 119.184 11.51 108.133 32.567 108.133 32.567 97.901 1.279 97.901 1.279 154.669 35.275 154.669 35.275 144.438 11.51 144.438" fill="#fff"/>
    <g>
      <path d="M150.722,2.623a2.687,2.687,0,0,0-4.535-1.88l-9.251,8.78,0,0-17.7,43.545,6.154,5.093,7.963.754h0l.46-1.132,17.241-42.416ZM144.5,5.156a3.611,3.611,0,0,0,4.3,2.305l.189,7.349-5.37-1.47-4.836-2.76Zm-22.814,47.3,16.259-40,4,2.282L125.375,55.5Zm5.571,3.837,16.575-40.774,4.451,1.218L132.031,56.741Z" fill="#fff"/>
      <path d="M143.624,13.34l5.37,1.47-.189-7.349a3.611,3.611,0,0,1-4.3-2.305l-5.715,5.424Z" fill="none"/>
      <polygon points="133.811 57.785 133.351 58.917 133.351 58.917 133.811 57.785" fill="#fbc561"/>
      <line x1="143.23" y1="14.29" x2="143.23" y2="14.29" fill="none" stroke="#fbc561" stroke-linecap="round" stroke-linejoin="round" stroke-width="0"/>
    </g>
    <g>
      <path d="M123.888,41.614c-.2-.084-.414-.154-.607-.242a9.4,9.4,0,0,1-5-5.466l-9.632,3.475a19.5,19.5,0,0,0,10.387,11.3c.332.152.662.286.993.423Z" fill="#fff"/>
      <path d="M137.933,47.644l-4,9.834a12.672,12.672,0,0,1,1.922,2.187,9.924,9.924,0,0,1,1.714,5.109L147.8,65.892a19.9,19.9,0,0,0-3.489-12A24.259,24.259,0,0,0,137.933,47.644Z" fill="#fff"/>
    </g>
    <g>
      <polygon points="102.807 94.707 105.009 97.724 102.807 94.706 102.807 94.707" fill="#fff"/>
      <polygon points="116.382 60.345 102.688 93.717 102.687 93.718 116.388 60.335 116.382 60.345" fill="#fff"/>
      <path d="M128.966,60.426l-7.894-3.271L116.7,59.577l-.311.758-13.7,33.383-.216.528.336.46,2.2,3.018,2.735,3.748,8.844-1.379L130.835,65.38ZM121.2,59.418l6.167,2.556,1.015,2.69-5.311-.5L118.887,60.7ZM104.793,93.964l12.953-31.559,3.686,3.051L107.951,98.291Zm5.042,5.115,13.484-32.842,4.77.451L115.136,98.253Z" fill="#fff"/>
      <path d="M123.566,62.967c1.442.6,2.766.7,2.959.239s-.82-1.326-2.261-1.923-2.766-.7-2.959-.24S122.125,62.369,123.566,62.967Z" fill="#fff"/>
    </g>
    <polygon points="137.763 127.52 137.763 116.933 152.277 116.933 152.277 106.702 137.763 106.702 137.763 97.901 155.81 97.901 155.81 87.67 127.532 87.67 127.532 137.751 158.382 137.751 158.382 127.52 137.763 127.52" fill="#fff"/>
    <polygon points="158.382 154.669 110.086 154.669 110.086 106.667 120.317 106.667 120.317 144.438 158.382 144.438 158.382 154.669" fill="#fff"/>
    <path d="M86.789,131.134a7.823,7.823,0,0,1-6.122-12.7,4.6,4.6,0,1,1,5.507-2.927c.2-.016.407-.027.615-.027a7.8,7.8,0,0,1,5.846,2.627,17.089,17.089,0,1,0,0,10.4A7.8,7.8,0,0,1,86.789,131.134Z" fill="#fff"/>
    <path d="M12.052,94.066,9.995,85.438a14.06,14.06,0,0,0,8.758-6.1l-.023.043,7.829,4.169A23.028,23.028,0,0,1,12.052,94.066Z" fill="#fff"/>
    <path d="M137.572,64.774a6.957,6.957,0,0,1-.415,2.761c-.8,2.07-3.292,4.027-6.062,4.759a10.874,10.874,0,0,1-8.694-1.06c-4.187-2.466-7.836-8.142-9.526-14.813l-9.918,2.511c2.406,9.5,7.6,17.2,14.252,21.118a20.77,20.77,0,0,0,10.638,2.917,22.9,22.9,0,0,0,5.861-.781c6.017-1.589,11-5.792,12.994-10.967a16.871,16.871,0,0,0,1.094-5.327L142.94,63.74Z" fill="#fff"/>
    <path d="M117.969,34.218a7.613,7.613,0,0,1,3.756-6.581,8.426,8.426,0,0,1,4.3-1.307c8.486,0,11.072,6.095,13.072,11.046l9.486-3.832c-2.246-8.191-8.806-17.45-22.178-17.45a19.233,19.233,0,0,0-9.885,2.733,17.743,17.743,0,0,0-8.772,15.9,17.092,17.092,0,0,0,.9,4.651l5.448-.722,4.184-2.753A6.651,6.651,0,0,1,117.969,34.218Z" fill="#fff"/>
    <path d="M173.394,105.82a7.893,7.893,0,0,1,3.756-6.581,8.425,8.425,0,0,1,4.3-1.306c8.487,0,11.072,6.094,13.072,11.045l9.486-3.832c-2.246-8.191-8.806-17.45-22.178-17.45a19.233,19.233,0,0,0-9.885,2.733c-5.645,3.335-8.771,8.867-8.771,15.9,0,18.726,29.917,16.53,29.917,30.251a7.4,7.4,0,0,1-.783,2.961c-1.6,3.27-5.259,4.755-8.86,4.755-8.327,0-11.946-5.685-11.946-16.489l-9.7,0c0,15.1,6.386,26.762,21.473,26.762,6.552,0,13.359-2.856,17.054-8.431a17.259,17.259,0,0,0,2.849-8.891C203.175,113.536,173.394,119.108,173.394,105.82Z" fill="#fff"/>
    <path d="M249.97,32.276c-9.242,7.577-18.483,3.781-27.725,11.765V18.626c9.242-.008,18.483,11.765,27.725,12.165C250.621,30.807,250.621,31.729,249.97,32.276Z" fill="#fff"/>
    <path d="M223.383,14.86a2.708,2.708,0,1,0-4.283,2.2V55.669a1.576,1.576,0,0,0,3.151,0V17.06A2.7,2.7,0,0,0,223.383,14.86Z" fill="#fff"/>
    <g>
      <path d="M227.66,58.616a1.5,1.5,0,0,1-1.228-2.359l3.566-5.1a1.5,1.5,0,0,1,2.459,1.718l-3.566,5.1A1.5,1.5,0,0,1,227.66,58.616Z" fill="#fff"/>
      <path d="M232.684,66.1a1.5,1.5,0,0,1-.316-2.966l4.516-.977a1.5,1.5,0,1,1,.635,2.931L233,66.061A1.518,1.518,0,0,1,232.684,66.1Z" fill="#fff"/>
      <path d="M213.786,58.6a1.5,1.5,0,0,1-1.236-.647l-3.514-5.084a1.5,1.5,0,0,1,2.468-1.706l3.514,5.084a1.5,1.5,0,0,1-1.232,2.353Z" fill="#fff"/>
      <path d="M208.733,66.1a1.481,1.481,0,0,1-.321-.035l-4.514-.986a1.5,1.5,0,0,1,.64-2.931l4.514.987a1.5,1.5,0,0,1-.319,2.965Z" fill="#fff"/>
    </g>
    <path d="M93.615,142.926a26.495,26.495,0,1,1-.81-39.95l7.586-9.874a38.794,38.794,0,0,0-3.172-2.328l.02-.042,3.844-8.243L90.931,77.755,87.084,86l-.006.013a39.021,39.021,0,0,0-5.609-1.236V75.657h-11.2v9.1A38.615,38.615,0,0,0,64.649,86l-3.843-8.242L50.654,82.489,54.5,90.732h0A39.226,39.226,0,0,0,49.962,94.2l-7-5.872-7.2,8.581,6.969,5.849a38.936,38.936,0,0,0,59.245,49.378Z" fill="#fff"/>
    <g>
      <path d="M219.059,154.544l-1.942.342-2.869.5,2.571,6.079a3.613,3.613,0,0,1,4.433.551l2.661-6.352-3.147-.73Z" fill="none"/>
      <path d="M220.729,66.445c-1.312-.035-2.384.28-2.4.7s1.043.8,2.355.83,2.385-.28,2.4-.7S222.041,66.481,220.729,66.445Z" fill="#fff"/>
      <path d="M228.261,67.3,225.3,63.976a1.276,1.276,0,0,0-.921-.428l-7.608-.2a1.3,1.3,0,0,0-1.013.456l-2.669,3.176a1.277,1.277,0,0,0-.3.8l-1.627,86.612c0,.041.008.08.012.121a1.134,1.134,0,0,0,.013.143,1.186,1.186,0,0,0,.043.147c.012.037.018.075.033.111l5.1,12.062.014.033a3.017,3.017,0,0,0,2.589,1.758c.077,0,.155.008.232.008a2.957,2.957,0,0,0,2.527-1.318,1.287,1.287,0,0,0,.1-.191l5.027-12a.792.792,0,0,0,.029-.1,1.109,1.109,0,0,0,.038-.128,1.285,1.285,0,0,0,.02-.15c0-.032.012-.062.012-.094l1.627-86.612A1.281,1.281,0,0,0,228.261,67.3Zm-7.6,1.843L215.9,67.54l1.427-1.894,6.438.173,1.616,2.012Zm-5.349.895,4.017,1.355-1.49,80.766-3.173.559-.909.16Zm6.478,82.509-1.394-.323,1.49-80.767,4.1-1.143-1.555,82.846Zm-.534,9.471a3.613,3.613,0,0,0-4.433-.551l-2.571-6.079,2.869-.5,1.942-.342,1.707.395,3.147.73Z" fill="#fff"/>
    </g>
    <polygon points="227.621 119.435 211.719 124.956 212.169 100.035 228.112 93.298 227.621 119.435" fill="#fff"/>
  </g>
</svg>
